<?xml version="1.0" encoding="iso-8859-1"?>
<!-- Uploaded to: SVG Repo, www.svgrepo.com, Generator: SVG Repo Mixer Tools -->
<!DOCTYPE svg PUBLIC "-//W3C//DTD SVG 1.1//EN" "http://www.w3.org/Graphics/SVG/1.1/DTD/svg11.dtd">
<svg fill="#000000" version="1.1" id="Capa_1" xmlns="http://www.w3.org/2000/svg" xmlns:xlink="http://www.w3.org/1999/xlink" 
	 width="800px" height="800px" viewBox="0 0 190.496 190.497"
	 xml:space="preserve">
<g>
	<g>
		<path d="M46.955,148.69c9.833-0.52,16.05-3.731,18.483-9.559c1.039-2.474,1.146-5.117,0.812-7.683
			c2.262,1.192,5.159,2.304,8.15,2.304c0.583,0,1.161-0.038,1.744-0.126c3.03-0.459,5.597-2.205,7.415-5.023
			c0.833-1.303,0.458-3.037-0.84-3.875c-1.298-0.819-3.037-0.448-3.869,0.844c-0.964,1.499-2.088,2.287-3.535,2.517
			c-3.621,0.574-8.321-2.561-9.84-3.809c-0.492-0.416-1.081-0.574-1.683-0.59c-1.053-2.102-2.234-3.87-3.198-4.958
			c-11.138-12.461-11.608-22.708-11.62-22.862c-0.035-1.538-1.228-2.559-2.859-2.729c-1.539,0.032-2.769,1.304-2.744,2.855
			c0.012,0.497,0.381,12.306,13.043,26.468c2.353,2.654,5.912,9.62,3.859,14.528c-1.904,4.558-8.449,5.85-13.603,6.123
			c-1.541,0.088-2.729,1.4-2.65,2.933c0.08,1.506,1.305,2.665,2.79,2.665L46.955,148.69z"/>
		<path d="M46.238,89.557c-0.016-0.021,3.776-0.572,7.711,8.747c0.281,0.679,2.886,6.671,8.237,8.258
			c0.7,0.208,1.557,0.366,2.532,0.366c1.784,0,3.967-0.523,6.388-2.205c1.283-0.876,1.597-2.627,0.711-3.89
			c-0.873-1.287-2.626-1.591-3.889-0.713c-1.55,1.068-2.919,1.429-4.137,1.068c-2.379-0.69-4.161-3.864-4.66-5.041
			c-6.012-14.284-13.655-12.22-14.503-11.953c-1.466,0.49-2.337,2.096-1.849,3.571C43.26,89.232,44.754,90.028,46.238,89.557z"/>
		<path d="M72.759,73.453c-0.583,1.438,0.096,3.073,1.518,3.661l1.071,0.211c1.093,0,2.142-0.648,2.59-1.729
			c8.059-19.466,1.064-46.698,0.772-47.847c-0.392-1.501-1.905-2.432-3.413-1.995c-1.502,0.386-2.398,1.92-1.994,3.417
			C73.357,29.439,80.104,55.713,72.759,73.453z"/>
		<path d="M69.946,147.022c-1.518-0.229-2.958,0.799-3.198,2.33c-0.241,1.532,0.808,2.966,2.332,3.207
			c0.117,0.011,10.555,1.768,13.296,12.214c0.329,1.258,1.466,2.09,2.706,2.09l0.711-0.099c1.502-0.394,2.386-1.931,1.99-3.414
			C84.13,149.413,70.523,147.115,69.946,147.022z"/>
		<path d="M74.743,171.711c-7.101,1.631-18.223-11.906-23.595-20.782c-0.808-1.325-2.521-1.74-3.85-0.941
			c-1.322,0.804-1.749,2.512-0.952,3.847c1.534,2.544,14.675,23.601,27.26,23.601c0.789,0,1.562-0.087,2.342-0.251
			c1.52-0.34,2.46-1.834,2.135-3.348C77.753,172.324,76.261,171.389,74.743,171.711z"/>
		<path d="M45.517,136.368c1.378,0,2.582-1.023,2.773-2.43c0.194-1.535-0.875-2.944-2.41-3.151
			c-6.106-0.811-9.155-11.667-9.886-16.159c1.272-19.617-5.72-26.856-6.026-27.16c-1.071-1.074-2.813-1.081-3.908-0.017
			c-1.097,1.06-1.125,2.832-0.09,3.945c0.058,0.063,5.577,6.17,4.412,23.166l0.026,0.602c0.122,0.799,3.04,19.622,14.729,21.171
			L45.517,136.368z"/>
		<path d="M57.872,86.37c-0.628,1.417,0.011,3.07,1.423,3.7l1.137,0.24c1.064,0,2.096-0.618,2.557-1.664
			c2.918-6.575-0.143-18.112-0.506-19.412l-0.285-0.679c-7.324-12.372,2.573-24.826,2.99-25.349c0.567-0.694,0.701-1.567,0.523-2.38
			c0.953,1.103,1.984,2.213,3.187,3.322c0.544,0.497,1.223,0.747,1.907,0.747c0.761,0,1.505-0.304,2.055-0.898
			c1.053-1.138,0.983-2.914-0.145-3.962c-5.089-4.7-7.496-9.138-6.992-12.826c0.625-4.588,5.58-7.198,5.71-7.267
			c1.373-0.695,1.932-2.375,1.245-3.754c-0.696-1.379-2.378-1.951-3.763-1.256c-0.311,0.156-7.653,3.907-8.727,11.448
			c-0.583,4.057,0.787,8.265,3.999,12.569c-1.132-0.528-2.5-0.298-3.335,0.717c-0.524,0.638-12.628,15.757-3.673,31.407
			C57.984,74.173,59.585,82.504,57.872,86.37z"/>
		<path d="M85.619,85.467c-0.974,3.571-8.813,3.667-12.472,3.155c-1.49-0.161-2.949,0.851-3.168,2.382
			c-0.205,1.531,0.854,2.948,2.389,3.166c0.504,0.071,2.22,0.291,4.438,0.291c4.989,0,12.485-1.109,14.228-7.52
			c0.396-1.497-0.472-3.031-1.967-3.441C87.574,83.115,86.034,83.984,85.619,85.467z"/>
		<path d="M172.978,92.354c4.202-25.853-6.425-34.493-10.131-36.667c1.434-16.922-8.093-24.146-11.193-26.017
			c-0.275-3.103-1.152-6.017-2.711-8.706c-5.986-10.271-19.382-13.58-21.284-14.009C123.251,2.364,118.551,0,113.599,0l-0.261,0.005
			c-8.506,0.14-15.001,7.163-18.074,11.229C92.187,7.168,85.692,0.145,77.186,0.005L76.922,0c-4.945,0-9.649,2.364-14.052,6.955
			c-1.906,0.429-15.297,3.737-21.294,14.009c-1.557,2.688-2.449,5.603-2.706,8.706c-3.1,1.871-12.63,9.094-11.195,26.011
			c-3.688,2.175-14.334,10.811-10.131,36.668c-1.037,1.934-7.571,14.832-4.086,27.199c0.812,2.851,2.164,5.395,3.885,7.71
			c-0.325,3.235-0.731,18.518,18.037,32.558c7.16,5.365,13.907,13.188,20.049,23.229l0.604,0.705
			c0.385,0.328,8.349,6.747,17.885,6.747c1.793,0,3.647-0.229,5.512-0.783c6.624-1.903,11.901-7.286,15.804-15.945
			c3.896,8.659,9.182,14.042,15.802,15.945c1.872,0.554,3.722,0.783,5.511,0.783c9.538-0.005,17.499-6.419,17.895-6.747l0.603-0.705
			c6.14-10.035,12.879-17.855,20.05-23.229c18.733-14.02,18.346-29.297,18.022-32.553c1.746-2.314,3.092-4.864,3.891-7.715
			C180.551,107.199,174.028,94.31,172.978,92.354z M92.012,166.841c-3.368,9.871-8.09,15.754-14.074,17.488
			c-7.986,2.343-16.227-3.354-17.986-4.662c-6.434-10.43-13.572-18.62-21.197-24.339c-11.287-8.45-14.619-17.122-15.55-22.496
			c0.9,0.641,1.759,1.298,2.775,1.872l1.365,0.345c0.981,0,1.933-0.513,2.447-1.434c0.764-1.347,0.282-3.054-1.069-3.814
			c-13.756-7.688-11.286-21.691-8.517-29.499l1.3,0.36l0.628-0.07c1.513-0.346,2.449-1.855,2.101-3.366
			c-5.279-22.864,0.783-32.082,4.433-35.387c0.696,3.204,1.707,6.651,3.199,10.444c0.437,1.105,1.497,1.77,2.605,1.77l1.037-0.194
			c1.441-0.572,2.148-2.203,1.576-3.63c-8.194-20.701-1.924-30.266,2.208-33.987c0.25,1.346,0.502,2.692,0.962,4.093
			c0.376,1.182,1.48,1.937,2.668,1.937l0.856-0.134c1.48-0.476,2.276-2.058,1.796-3.53c-1.84-5.694-1.556-10.676,0.849-14.826
			c2.481-4.293,6.85-7.122,10.634-8.887c-0.241,1.108,0.194,2.29,1.214,2.936c1.29,0.823,3.032,0.454,3.861-0.856
			c4.802-7.565,9.789-11.393,14.799-11.393l0.145,0.005c7.382,0.112,13.372,8.356,14.922,10.698L92.012,166.841L92.012,166.841z
			 M151.784,155.329c-7.634,5.724-14.764,13.914-21.198,24.35c-1.754,1.313-9.978,6.984-17.956,4.663
			c-5.981-1.73-10.726-7.606-14.102-17.484V16.295c2.223-3.447,8.208-10.574,14.912-10.681l0.146-0.006
			c5.019,0,9.987,3.839,14.809,11.393c0.832,1.311,2.578,1.685,3.862,0.856c1.019-0.643,1.447-1.828,1.215-2.936
			c3.792,1.77,8.143,4.593,10.627,8.881c2.408,4.148,2.688,9.138,0.849,14.827c-0.477,1.474,0.328,3.053,1.794,3.53l0.859,0.134
			c1.189,0,2.282-0.756,2.665-1.938c0.459-1.401,0.711-2.752,0.968-4.096c4.121,3.727,10.402,13.284,2.212,33.989
			c-0.569,1.434,0.136,3.064,1.575,3.631l1.03,0.197c1.115,0,2.166-0.667,2.605-1.771c1.508-3.79,2.504-7.234,3.204-10.436
			c3.645,3.305,9.707,12.518,4.435,35.377c-0.347,1.51,0.589,3.009,2.102,3.365l0.627,0.071l1.254-0.335
			c1.621,4.613,3.162,11.345,1.378,17.681c-1.39,4.958-4.706,8.925-9.838,11.786c-1.345,0.756-1.834,2.464-1.073,3.82
			c0.515,0.919,1.475,1.434,2.451,1.434l1.368-0.351c1.013-0.569,1.866-1.23,2.759-1.865
			C166.409,138.217,163.061,146.891,151.784,155.329z"/>
		<path d="M119.125,19.949c0.05,0.027,5.031,2.634,5.686,7.228c0.542,3.691-1.882,8.143-6.98,12.859
			c-1.129,1.054-1.205,2.824-0.149,3.962c0.561,0.594,1.298,0.898,2.06,0.898c0.677,0,1.35-0.25,1.904-0.747
			c1.196-1.113,2.225-2.22,3.188-3.317c-0.181,0.812-0.055,1.686,0.524,2.38c0.106,0.124,10.355,12.911,2.988,25.349l-0.285,0.673
			c-0.35,1.289-3.419,12.837-0.503,19.412c0.46,1.045,1.488,1.664,2.562,1.664l1.132-0.24c1.412-0.63,2.053-2.289,1.423-3.7
			c-1.546-3.48-0.421-11.073,0.695-15.292c8.952-15.655-3.161-30.769-3.688-31.407c-0.813-1.009-2.194-1.245-3.325-0.717
			c3.218-4.303,4.586-8.512,4.004-12.569c-1.066-7.541-8.416-11.291-8.728-11.447c-1.383-0.689-3.064-0.124-3.76,1.256
			C117.183,17.573,117.741,19.253,119.125,19.949z"/>
		<path d="M143.881,143.099c-5.155-0.274-11.703-1.55-13.604-6.124c-2.045-4.914,1.518-11.88,3.863-14.522
			c12.667-14.156,13.022-25.981,13.034-26.474c0.033-1.541-1.193-2.807-2.726-2.846c-1.579-0.079-2.823,1.183-2.877,2.715
			c0,0.109-0.447,10.38-11.612,22.873c-0.975,1.071-2.156,2.85-3.201,4.946c-0.591,0.022-1.188,0.186-1.69,0.602
			c-1.514,1.247-6.188,4.366-9.828,3.81c-1.453-0.231-2.583-1.041-3.535-2.524c-0.837-1.3-2.582-1.679-3.868-0.842
			c-1.302,0.837-1.689,2.572-0.843,3.875c1.816,2.83,4.383,4.568,7.414,5.028c0.58,0.093,1.162,0.119,1.736,0.119
			c2.997,0,5.887-1.104,8.152-2.303c-0.34,2.566-0.22,5.197,0.817,7.677c2.428,5.834,8.644,9.04,18.481,9.565l0.139,0.005
			c1.494,0,2.718-1.159,2.801-2.665C146.611,144.5,145.424,143.18,143.881,143.099z"/>
		<path d="M126.759,101.199c-1.229,0.346-2.577,0.011-4.137-1.072c-1.257-0.884-3.021-0.569-3.896,0.712
			c-0.868,1.27-0.564,3.015,0.711,3.896c2.432,1.675,4.603,2.199,6.396,2.199c0.975,0,1.83-0.153,2.53-0.36
			c5.346-1.576,7.96-7.584,8.232-8.241c3.814-9.048,7.427-8.75,7.694-8.769c1.45,0.416,2.922-0.392,3.403-1.809
			c0.481-1.475-0.312-3.059-1.766-3.546c-0.858-0.281-8.488-2.345-14.502,11.962C130.928,97.325,129.134,100.499,126.759,101.199z"
			/>
		<path d="M115.191,77.331l1.074-0.211c1.426-0.588,2.106-2.224,1.514-3.661c-7.332-17.705-0.589-44.014-0.536-44.277
			c0.396-1.501-0.504-3.031-2.003-3.417c-1.505-0.427-3.021,0.503-3.404,1.995c-0.306,1.149-7.28,28.38,0.774,47.847
			C113.054,76.682,114.08,77.331,115.191,77.331z"/>
		<path d="M121.473,152.559c1.526-0.241,2.567-1.675,2.325-3.193c-0.243-1.535-1.718-2.562-3.198-2.333
			c-0.58,0.093-14.181,2.391-17.852,16.328c-0.395,1.494,0.497,3.021,1.986,3.415l0.713,0.099c1.251,0,2.39-0.832,2.709-2.091
			C110.879,154.464,120.986,152.635,121.473,152.559z"/>
		<path d="M143.235,149.988c-1.303-0.794-3.043-0.378-3.848,0.941c-5.373,8.876-16.524,22.436-23.594,20.782
			c-1.521-0.322-3.011,0.612-3.348,2.125c-0.341,1.519,0.611,3.008,2.121,3.353c0.788,0.159,1.554,0.252,2.353,0.252
			c12.588,0,25.724-21.057,27.25-23.602C144.986,152.504,144.565,150.786,143.235,149.988z"/>
		<path d="M164.549,91.401c1.066-1.097,1.051-2.851-0.027-3.934c-1.088-1.092-2.867-1.092-3.963,0
			c-0.306,0.304-7.299,7.543-6.019,27.16c-0.688,4.246-3.797,15.349-9.894,16.159c-1.519,0.207-2.603,1.616-2.405,3.151
			c0.191,1.406,1.396,2.43,2.772,2.43l0.374-0.02c11.691-1.562,14.604-20.386,14.73-21.185l0.025-0.591
			C158.994,97.708,164.406,91.569,164.549,91.401z"/>
		<path d="M118.181,94.176c1.526-0.219,2.597-1.636,2.386-3.166c-0.232-1.538-1.682-2.583-3.165-2.383
			c-2.373,0.343-11.397,0.791-12.486-3.154c-0.405-1.494-1.938-2.354-3.437-1.965c-1.499,0.408-2.375,1.948-1.97,3.439
			c1.745,6.411,9.236,7.519,14.232,7.519C115.94,94.461,117.676,94.242,118.181,94.176z"/>
	</g>
</g>
</svg>