<svg id="visual" viewBox="0 0 1920 720" width="1920" height="720" xmlns="http://www.w3.org/2000/svg" xmlns:xlink="http://www.w3.org/1999/xlink" version="1.1"><path d="M0 103L29.2 106.3C58.3 109.7 116.7 116.3 174.8 119.7C233 123 291 123 349.2 115.8C407.3 108.7 465.7 94.3 523.8 99C582 103.7 640 127.3 698.2 126.7C756.3 126 814.7 101 872.8 102.8C931 104.7 989 133.3 1047.2 138.3C1105.3 143.3 1163.7 124.7 1221.8 133.5C1280 142.3 1338 178.7 1396.2 182.2C1454.3 185.7 1512.7 156.3 1570.8 143.7C1629 131 1687 135 1745.2 132.7C1803.3 130.3 1861.7 121.7 1890.8 117.3L1920 113L1920 721L1890.8 721C1861.7 721 1803.3 721 1745.2 721C1687 721 1629 721 1570.8 721C1512.7 721 1454.3 721 1396.2 721C1338 721 1280 721 1221.8 721C1163.7 721 1105.3 721 1047.2 721C989 721 931 721 872.8 721C814.7 721 756.3 721 698.2 721C640 721 582 721 523.8 721C465.7 721 407.3 721 349.2 721C291 721 233 721 174.8 721C116.7 721 58.3 721 29.2 721L0 721Z" fill="#a200ff"></path><path d="M0 291L29.2 291.2C58.3 291.3 116.7 291.7 174.8 287.2C233 282.7 291 273.3 349.2 255.3C407.3 237.3 465.7 210.7 523.8 206.8C582 203 640 222 698.2 235.7C756.3 249.3 814.7 257.7 872.8 267.3C931 277 989 288 1047.2 277.5C1105.3 267 1163.7 235 1221.8 230.3C1280 225.7 1338 248.3 1396.2 249.5C1454.3 250.7 1512.7 230.3 1570.8 237.8C1629 245.3 1687 280.7 1745.2 291.5C1803.3 302.3 1861.7 288.7 1890.8 281.8L1920 275L1920 721L1890.8 721C1861.7 721 1803.3 721 1745.2 721C1687 721 1629 721 1570.8 721C1512.7 721 1454.3 721 1396.2 721C1338 721 1280 721 1221.8 721C1163.7 721 1105.3 721 1047.2 721C989 721 931 721 872.8 721C814.7 721 756.3 721 698.2 721C640 721 582 721 523.8 721C465.7 721 407.3 721 349.2 721C291 721 233 721 174.8 721C116.7 721 58.3 721 29.2 721L0 721Z" fill="#692edb"></path><path d="M0 357L29.2 360.8C58.3 364.7 116.7 372.3 174.8 374.2C233 376 291 372 349.2 355.5C407.3 339 465.7 310 523.8 314.8C582 319.7 640 358.3 698.2 364C756.3 369.7 814.7 342.3 872.8 338.3C931 334.3 989 353.7 1047.2 361.7C1105.3 369.7 1163.7 366.3 1221.8 350.8C1280 335.3 1338 307.7 1396.2 309.3C1454.3 311 1512.7 342 1570.8 355C1629 368 1687 363 1745.2 368.3C1803.3 373.7 1861.7 389.3 1890.8 397.2L1920 405L1920 721L1890.8 721C1861.7 721 1803.3 721 1745.2 721C1687 721 1629 721 1570.8 721C1512.7 721 1454.3 721 1396.2 721C1338 721 1280 721 1221.8 721C1163.7 721 1105.3 721 1047.2 721C989 721 931 721 872.8 721C814.7 721 756.3 721 698.2 721C640 721 582 721 523.8 721C465.7 721 407.3 721 349.2 721C291 721 233 721 174.8 721C116.7 721 58.3 721 29.2 721L0 721Z" fill="#3834b2"></path><path d="M0 394L29.2 393.5C58.3 393 116.7 392 174.8 398.8C233 405.7 291 420.3 349.2 433.8C407.3 447.3 465.7 459.7 523.8 468.3C582 477 640 482 698.2 473.2C756.3 464.3 814.7 441.7 872.8 440C931 438.3 989 457.7 1047.2 453.3C1105.3 449 1163.7 421 1221.8 415.8C1280 410.7 1338 428.3 1396.2 425.2C1454.3 422 1512.7 398 1570.8 395C1629 392 1687 410 1745.2 423.5C1803.3 437 1861.7 446 1890.8 450.5L1920 455L1920 721L1890.8 721C1861.7 721 1803.3 721 1745.2 721C1687 721 1629 721 1570.8 721C1512.7 721 1454.3 721 1396.2 721C1338 721 1280 721 1221.8 721C1163.7 721 1105.3 721 1047.2 721C989 721 931 721 872.8 721C814.7 721 756.3 721 698.2 721C640 721 582 721 523.8 721C465.7 721 407.3 721 349.2 721C291 721 233 721 174.8 721C116.7 721 58.3 721 29.2 721L0 721Z" fill="#122e85"></path><path d="M0 493L29.2 502.5C58.3 512 116.7 531 174.8 529.3C233 527.7 291 505.3 349.2 497.2C407.3 489 465.7 495 523.8 510.2C582 525.3 640 549.7 698.2 547.5C756.3 545.3 814.7 516.7 872.8 510.2C931 503.7 989 519.3 1047.2 533.7C1105.3 548 1163.7 561 1221.8 559.8C1280 558.7 1338 543.3 1396.2 529.8C1454.3 516.3 1512.7 504.7 1570.8 501.7C1629 498.7 1687 504.3 1745.2 515C1803.3 525.7 1861.7 541.3 1890.8 549.2L1920 557L1920 721L1890.8 721C1861.7 721 1803.3 721 1745.2 721C1687 721 1629 721 1570.8 721C1512.7 721 1454.3 721 1396.2 721C1338 721 1280 721 1221.8 721C1163.7 721 1105.3 721 1047.2 721C989 721 931 721 872.8 721C814.7 721 756.3 721 698.2 721C640 721 582 721 523.8 721C465.7 721 407.3 721 349.2 721C291 721 233 721 174.8 721C116.7 721 58.3 721 29.2 721L0 721Z" fill="#082457"></path><path d="M0 640L29.2 639.8C58.3 639.7 116.7 639.3 174.8 627.3C233 615.3 291 591.7 349.2 580C407.3 568.3 465.7 568.7 523.8 581.7C582 594.7 640 620.3 698.2 629.8C756.3 639.3 814.7 632.7 872.8 620C931 607.3 989 588.7 1047.2 585.5C1105.3 582.3 1163.7 594.7 1221.8 607.3C1280 620 1338 633 1396.2 632.8C1454.3 632.7 1512.7 619.3 1570.8 615C1629 610.7 1687 615.3 1745.2 624.3C1803.3 633.3 1861.7 646.7 1890.8 653.3L1920 660L1920 721L1890.8 721C1861.7 721 1803.3 721 1745.2 721C1687 721 1629 721 1570.8 721C1512.7 721 1454.3 721 1396.2 721C1338 721 1280 721 1221.8 721C1163.7 721 1105.3 721 1047.2 721C989 721 931 721 872.8 721C814.7 721 756.3 721 698.2 721C640 721 582 721 523.8 721C465.7 721 407.3 721 349.2 721C291 721 233 721 174.8 721C116.7 721 58.3 721 29.2 721L0 721Z" fill="#0f172a"></path></svg>